HIERARCHY
ROOT Hips
{
	OFFSET 0.00000 0.00000 0.00000
	CHANNELS 6 Xposition Yposition Zposition Zrotation Yrotation Xrotation 
	JOINT LHipJoint
	{
		OFFSET 0 0 0
		CHANNELS 3 Zrotation Yrotation Xrotation
		JOINT LeftUpLeg
		{
			OFFSET 1.26600 -1.82114 0.91038
			CHANNELS 3 Zrotation Yrotation Xrotation
			JOINT LeftLeg
			{
				OFFSET 2.50076 -6.87080 0.00000
				CHANNELS 3 Zrotation Yrotation Xrotation
				JOINT LeftFoot
				{
					OFFSET 2.57364 -7.07102 0.00000
					CHANNELS 3 Zrotation Yrotation Xrotation
					JOINT LeftToeBase
					{
						OFFSET 0.13572 -0.37290 1.97004
						CHANNELS 3 Zrotation Yrotation Xrotation
						End Site
						{
							OFFSET 0.00000 -0.00000 1.01383
						}
					}
				}
			}
		}
	}
	JOINT RHipJoint
	{
		OFFSET 0 0 0
		CHANNELS 3 Zrotation Yrotation Xrotation
		JOINT RightUpLeg
		{
			OFFSET -1.20803 -1.82114 0.91038
			CHANNELS 3 Zrotation Yrotation Xrotation
			JOINT RightLeg
			{
				OFFSET -2.54916 -7.00377 0.00000
				CHANNELS 3 Zrotation Yrotation Xrotation
				JOINT RightFoot
				{
					OFFSET -2.56374 -7.04382 0.00000
					CHANNELS 3 Zrotation Yrotation Xrotation
					JOINT RightToeBase
					{
						OFFSET -0.23520 -0.64621 2.09921
						CHANNELS 3 Zrotation Yrotation Xrotation
						End Site
						{
							OFFSET -0.00000 -0.00000 1.10065
						}
					}
				}
			}
		}
	}
	JOINT LowerBack
	{
		OFFSET 0 0 0
		CHANNELS 3 Zrotation Yrotation Xrotation
		JOINT Spine
		{
			OFFSET 0.05492 2.10797 -0.12074
			CHANNELS 3 Zrotation Yrotation Xrotation
			JOINT Spine1
			{
				OFFSET 0.04577 2.11592 -0.04483
				CHANNELS 3 Zrotation Yrotation Xrotation
				JOINT Neck
				{
					OFFSET 0 0 0
					CHANNELS 3 Zrotation Yrotation Xrotation
					JOINT Neck1
					{
						OFFSET -0.10759 1.80167 0.15770
						CHANNELS 3 Zrotation Yrotation Xrotation
						JOINT Head
						{
							OFFSET 0.09237 1.77509 -0.40848
							CHANNELS 3 Zrotation Yrotation Xrotation
							End Site
							{
								OFFSET 0.03805 1.84093 -0.15754
							}
						}
					}
				}
				JOINT LeftShoulder
				{
					OFFSET 0 0 0
					CHANNELS 3 Zrotation Yrotation Xrotation
					JOINT LeftArm
					{
						OFFSET 3.42372 1.09575 -0.28209
						CHANNELS 3 Zrotation Yrotation Xrotation
						JOINT LeftForeArm
						{
							OFFSET 4.95681 -0.00000 0.00000
							CHANNELS 3 Zrotation Yrotation Xrotation
							JOINT LeftHand
							{
								OFFSET 3.40915 -0.00000 0.00000
								CHANNELS 3 Zrotation Yrotation Xrotation
								JOINT LeftFingerBase
								{
									OFFSET 0 0 0
									CHANNELS 3 Zrotation Yrotation Xrotation
									JOINT LeftHandIndex1
									{
										OFFSET 0.61640 -0.00000 0.00000
										CHANNELS 3 Zrotation Yrotation Xrotation
										End Site
										{
											OFFSET 0.49696 -0.00000 0.00000
										}
									}
								}
								JOINT LThumb
								{
									OFFSET 0 0 0
									CHANNELS 3 Zrotation Yrotation Xrotation
									End Site
									{
										OFFSET 0.50455 -0.00000 0.50455
									}
								}
							}
						}
					}
				}
				JOINT RightShoulder
				{
					OFFSET 0 0 0
					CHANNELS 3 Zrotation Yrotation Xrotation
					JOINT RightArm
					{
						OFFSET -3.24731 1.15872 -0.32221
						CHANNELS 3 Zrotation Yrotation Xrotation
						JOINT RightForeArm
						{
							OFFSET -5.35200 -0.00000 0.00000
							CHANNELS 3 Zrotation Yrotation Xrotation
							JOINT RightHand
							{
								OFFSET -3.43721 -0.00000 -0.00000
								CHANNELS 3 Zrotation Yrotation Xrotation
								JOINT RightFingerBase
								{
									OFFSET 0 0 0
									CHANNELS 3 Zrotation Yrotation Xrotation
									JOINT RightHandIndex1
									{
										OFFSET -0.72009 -0.00000 0.00000
										CHANNELS 3 Zrotation Yrotation Xrotation
										End Site
										{
											OFFSET -0.58056 -0.00000 0.00000
										}
									}
								}
								JOINT RThumb
								{
									OFFSET 0 0 0
									CHANNELS 3 Zrotation Yrotation Xrotation
									End Site
									{
										OFFSET -0.58942 -0.00000 0.58942
									}
								}
							}
						}
					}
				}
			}
		}
	}
}
MOTION
Frames: 10
Frame Time: .0083333
8.7612 24.0257 7.3390 -3.2536 2.1183 -8.7395 0.0000 0.0000 0.0000 -10.4919 -8.2004 -26.6343 9.3644 17.0366 57.3421 -0.7014 -14.9070 8.5728 0.2541 -3.2435 -8.9575 0.0000 0.0000 0.0000 26.4020 -6.7429 -8.2537 -2.6418 -10.0912 29.2726 -0.3171 5.6428 -10.1773 -0.1465 -2.4667 6.7972 13.1988 3.9948 15.5388 2.8857 7.3185 5.4361 -5.4162 3.7654 -1.5308 -9.0930 -3.8664 -6.4288 2.5748 -4.3388 39.6903 2.1483 -2.6896 15.2839 0.0000 0.0000 0.0000 -94.2755 19.9416 12.1465 16.4822 -26.1700 -3.8562 -0.0000 0.0000 -1.6138 23.9425 8.2196 3.6323 -7.1250 0.0000 -0.0000 -2.5321 38.9494 0.3777 0.0000 0.0000 0.0000 73.9830 -2.2531 30.4451 -42.5013 49.4839 -20.3208 0.0000 -0.0000 -12.7981 -23.1040 18.0677 -7.5371 7.1250 -0.0000 -0.0000 3.2354 -10.4762 2.5974
8.7767 24.0118 7.4358 -2.8187 1.4405 -8.3439 0.0000 0.0000 0.0000 -11.2522 -7.7354 -25.3300 8.7002 16.6109 55.0474 -0.6171 -14.0684 8.3881 0.3173 -3.6210 -10.0128 0.0000 0.0000 0.0000 25.9661 -6.4400 -8.5061 -2.7524 -10.2830 29.8983 -0.3468 6.1129 -10.6800 -0.1212 -2.2443 6.1814 12.8859 4.0461 14.9205 2.6928 7.2522 5.2536 -5.3936 3.7308 -1.4258 -8.7211 -3.7215 -6.4635 2.3993 -4.1542 39.8297 2.0346 -2.5864 15.3261 0.0000 0.0000 0.0000 -93.6824 20.1094 12.9909 16.3547 -25.9992 -3.8001 -0.0000 0.0000 -1.0731 24.1037 8.6104 3.8321 -7.1250 0.0000 -0.0000 -2.4298 39.3875 0.3363 0.0000 0.0000 0.0000 74.2146 -2.1699 30.0415 -42.6314 49.5539 -20.4198 0.0000 -0.0000 -12.9042 -22.9854 18.1985 -7.5463 7.1250 -0.0000 -0.0000 3.3234 -10.3539 2.6766
8.7904 23.9868 7.5286 -2.8727 0.6898 -8.0106 0.0000 0.0000 0.0000 -11.4069 -7.0124 -24.1887 8.1205 16.2072 52.9955 -0.5472 -13.5007 9.0130 0.2337 -3.1115 -8.5894 0.0000 0.0000 0.0000 26.1139 -5.9645 -8.6236 -2.8488 -10.4461 30.4337 -0.3832 6.3803 -11.2219 -0.0973 -2.0113 5.5370 12.9949 4.0148 14.4216 2.6479 7.1657 5.0295 -5.4535 3.6811 -1.3943 -8.2368 -3.5600 -6.4486 2.0011 -3.8910 39.9458 1.8167 -2.4617 15.3317 -0.0000 -0.0000 0.0000 -93.1348 20.4245 13.9613 16.2942 -25.9180 -3.7736 -0.0000 0.0000 -1.2543 24.2640 8.6368 3.8725 -7.1250 0.0000 -0.0000 -2.2930 39.4291 0.3150 -0.0000 -0.0000 0.0000 74.3869 -2.0686 29.7592 -42.5168 49.4923 -20.3326 0.0000 -0.0000 -13.2480 -22.7108 18.6726 -7.6320 7.1250 -0.0000 -0.0000 3.5407 -9.8899 2.8856
8.8014 23.9636 7.6210 -2.8107 -0.2143 -7.8244 0.0000 0.0000 0.0000 -11.6110 -6.1909 -23.0560 7.6905 15.8868 51.4399 -0.5029 -13.2286 9.6910 0.0908 -1.9430 -5.3481 0.0000 0.0000 0.0000 26.1688 -5.3783 -8.2208 -2.8377 -10.4276 30.3729 -0.4008 6.5618 -11.4834 -0.0869 -1.9019 5.2346 12.9498 3.9974 14.0889 2.5907 7.0938 4.8871 -5.4580 3.6397 -1.3801 -7.7374 -3.3580 -6.6191 1.6321 -3.5669 40.1352 1.6152 -2.3060 15.4178 0.0000 0.0000 0.0000 -92.5757 20.7197 14.9832 16.3616 -26.0085 -3.8031 -0.0000 0.0000 -1.7789 24.2954 9.0413 4.0577 -7.1250 0.0000 -0.0000 -2.3052 39.8727 0.2915 0.0000 0.0000 0.0000 74.5611 -1.8883 29.4845 -42.3930 49.4255 -20.2386 0.0000 -0.0000 -13.6203 -22.2449 19.0133 -7.5899 7.1250 -0.0000 -0.0000 3.8707 -9.5970 3.1787
8.8083 23.9381 7.7088 -2.9211 -1.2718 -7.7845 0.0000 0.0000 0.0000 -11.5994 -5.1595 -21.7518 7.2358 15.5273 49.7608 -0.5327 -13.6046 9.9689 0.0614 -1.5987 -4.3977 0.0000 0.0000 0.0000 26.4386 -4.6485 -7.7472 -2.8816 -10.5009 30.6146 -0.4359 6.8228 -11.9743 -0.0907 -1.9420 5.3454 13.0054 3.9662 13.9150 2.6291 7.0358 4.8382 -5.4270 3.6098 -1.3472 -7.4461 -3.1073 -6.9039 1.5351 -3.2180 40.3856 1.5701 -2.1373 15.5776 0.0000 -0.0000 0.0000 -92.1228 20.7883 15.5456 16.3574 -26.0029 -3.8013 -0.0000 0.0000 -1.7238 23.7438 9.5123 4.1578 -7.1250 0.0000 -0.0000 -2.8375 40.3376 0.3265 0.0000 -0.0000 0.0000 74.7431 -1.6201 29.1076 -42.3760 49.4163 -20.2256 0.0000 -0.0000 -13.7877 -21.8566 18.7584 -7.3500 7.1250 -0.0000 -0.0000 4.1035 -9.9222 3.3439
8.7794 23.8511 7.8065 -7.7372 -3.7994 -9.3190 0.0000 0.0000 0.0000 -5.8038 -2.5918 -19.1099 6.8778 15.2281 48.4106 -0.6377 -14.7481 10.5299 0.0826 -1.8543 -5.1031 0.0000 0.0000 0.0000 32.4424 -3.0043 -4.8544 -2.9117 -10.5507 30.7790 -0.5242 5.5762 -12.9134 -0.0858 -1.8890 5.1991 17.3272 3.5349 15.6324 4.1792 7.4034 5.1240 -6.2538 3.7988 -1.5025 -7.4972 -2.8389 -7.0389 1.5872 -2.8330 40.5523 1.6576 -1.9856 15.6735 0.0000 0.0000 0.0000 -91.8136 20.6813 15.8050 16.0835 -25.6338 -3.6820 -0.0000 0.0000 -1.4122 23.0657 9.6183 4.0697 -7.1250 0.0000 -0.0000 -3.4445 40.3928 0.3918 0.0000 0.0000 0.0000 74.8276 -1.4517 28.6677 -42.4442 49.4531 -20.2775 0.0000 -0.0000 -14.0047 -21.6419 18.3495 -7.1199 7.1250 -0.0000 -0.0000 4.2135 -10.3837 3.3945
8.8410 23.8896 7.8833 -3.4820 -3.0904 -7.5195 0.0000 0.0000 0.0000 -11.2824 -3.3765 -19.3246 6.3745 14.7817 46.4669 -0.5354 -13.6342 9.9800 0.0260 -1.0404 -2.8599 0.0000 0.0000 0.0000 27.2854 -3.5367 -7.2594 -3.0060 -10.7048 31.2907 -0.4995 7.4582 -12.8514 -0.0860 -1.8920 5.2073 13.4645 3.7004 13.3654 2.9382 6.6775 4.6679 -5.2695 3.4265 -1.2797 -7.6409 -2.6006 -7.1655 1.4534 -2.4011 40.6868 1.6879 -1.8530 15.7498 0.0000 0.0000 0.0000 -91.6176 20.5237 15.8964 15.7501 -25.1806 -3.5390 -0.0000 0.0000 -1.2720 22.6731 10.0108 4.1536 -7.1250 0.0000 -0.0000 -3.8377 40.7804 0.4000 0.0000 0.0000 0.0000 74.7659 -1.2390 28.5243 -42.2963 49.3730 -20.1652 0.0000 -0.0000 -14.7396 -22.3302 18.2832 -7.3425 7.1250 -0.0000 -0.0000 3.7586 -10.3576 3.0283
8.8236 23.8860 7.9606 -1.7248 -2.5959 -6.4386 0.0000 0.0000 0.0000 -13.7210 -3.7229 -19.0542 5.9818 14.4107 44.9085 -0.5334 -13.6052 9.9470 0.0652 1.6473 4.5318 0.0000 0.0000 0.0000 25.0780 -4.3147 -8.6943 -3.0904 -10.8399 31.7419 -0.5088 8.6784 -13.2116 -0.0973 -2.0116 5.5378 11.0805 3.5047 11.9024 2.6391 5.9431 4.3409 -4.1235 3.0397 -1.2079 -7.6291 -2.3503 -7.4430 1.1071 -1.8923 40.8500 1.6084 -1.6938 15.8685 0.0000 0.0000 0.0000 -91.5497 20.4863 15.8906 15.6826 -25.0884 -3.5103 -0.0000 0.0000 -1.3748 22.6471 10.5154 4.3543 -7.1250 0.0000 -0.0000 -3.9266 41.3200 0.3570 0.0000 0.0000 0.0000 74.5983 -0.8473 28.6049 -41.9471 49.1821 -19.9005 0.0000 -0.0000 -15.7429 -23.5272 18.5145 -7.8714 7.1250 -0.0000 -0.0000 2.9957 -9.9375 2.4372
8.8237 23.8676 8.0387 -1.8119 -3.1650 -6.1221 0.0000 0.0000 0.0000 -13.8680 -2.8508 -18.0937 5.5854 14.0142 43.2941 -0.6627 -14.6850 9.3086 0.3364 3.7271 10.3102 0.0000 0.0000 0.0000 25.1963 -3.9732 -9.0087 -3.2473 -11.0850 32.5671 -0.5701 9.1081 -13.9720 -0.1067 -2.1067 5.8005 10.7565 3.2490 11.3851 2.9041 5.5115 4.2763 -3.5946 2.8217 -1.1199 -7.7814 -2.0156 -7.7941 0.9164 -1.2671 40.9770 1.6439 -1.4916 15.9868 -0.0000 -0.0000 0.0000 -91.7200 20.3846 15.5950 15.6745 -25.0773 -3.5069 -0.0000 0.0000 -1.4517 22.5465 10.8099 4.4523 -7.1250 0.0000 -0.0000 -4.0560 41.6264 0.3382 -0.0000 -0.0000 0.0000 74.2608 -0.4129 28.4585 -41.7467 49.0714 -19.7490 0.0000 -0.0000 -16.1160 -23.8412 18.6260 -8.0337 7.1250 -0.0000 -0.0000 2.8009 -9.7710 2.2878
8.8262 23.8600 8.1127 -1.7714 -3.6959 -5.9543 0.0000 0.0000 0.0000 -14.1735 -1.9290 -17.1471 5.2985 13.7123 42.0970 -0.8242 -15.8663 7.0975 0.3472 3.7860 10.4754 0.0000 0.0000 0.0000 25.1268 -3.8297 -9.1049 -3.3395 -11.2254 33.0439 -0.5869 9.5954 -14.2633 -0.1125 -2.1629 5.9559 10.2594 2.9172 11.0106 3.2069 4.9768 4.2957 -2.9336 2.5526 -1.0438 -8.1352 -1.6174 -8.2040 0.7857 -0.5104 41.0479 1.7625 -1.2585 16.0873 -0.0000 -0.0000 0.0000 -92.1314 20.1579 14.7486 15.5666 -24.9295 -3.4612 -0.0000 0.0000 -1.1789 21.6135 11.6229 4.5638 -7.1250 0.0000 -0.0000 -5.0081 42.4011 0.3220 -0.0000 -0.0000 0.0000 73.7544 0.1440 28.3233 -41.4753 48.9200 -19.5441 0.0000 -0.0000 -16.1644 -23.4069 18.3088 -7.7438 7.1250 -0.0000 -0.0000 3.0570 -10.1749 2.4725
